<svg xmlns="http://www.w3.org/2000/svg" version="1.1" xmlns:xlink="http://www.w3.org/1999/xlink" xmlns:svgjs="http://svgjs.dev/svgjs" width="128" height="128" viewBox="0 0 128 128"><g transform="matrix(0.8046875,0,0,0.8046875,12.755384870511989,6.355846710526315)"><svg viewBox="0 0 84 95" data-background-color="#ffffff" preserveAspectRatio="xMidYMid meet" height="144" width="128" xmlns="http://www.w3.org/2000/svg" xmlns:xlink="http://www.w3.org/1999/xlink"><g id="tight-bounds" transform="matrix(1,0,0,1,-0.20827504002919284,-0.24049999999999727)"><svg viewBox="0 0 84.41655008005837 95.48100000000001" height="95.48100000000001" width="84.41655008005837"><g><svg viewBox="0 0 84.41655008005837 95.48100000000001" height="95.48100000000001" width="84.41655008005837"><g><svg viewBox="0 0 84.41655008005837 95.48100000000001" height="95.48100000000001" width="84.41655008005837"><g id="textblocktransform"><svg viewBox="0 0 84.41655008005837 95.48100000000001" height="95.48100000000001" width="84.41655008005837" id="textblock"><g><svg viewBox="0 0 84.41655008005837 95.48100000000001" height="95.48100000000001" width="84.41655008005837"><g><svg viewBox="0 0 84.41655008005837 95.48100000000001" height="95.48100000000001" width="84.41655008005837"><g><svg xmlns="http://www.w3.org/2000/svg" xmlns:xlink="http://www.w3.org/1999/xlink" version="1.1" x="0" y="0" viewBox="9.681451142481942 3.757766203860583 83.12902574900816 94.02472027124519" enable-background="new 0 0 100 100" xml:space="preserve" height="95.48100000000001" width="84.41655008005837" class="icon-icon-0" data-fill-palette-color="accent" id="icon-0"><path fill="#ffd700" d="M81.812 22.649c0 0 1.262-7.748-8.437-13.717-6.892-4.241-17.927-7.535-33.624-2.976 0 0-14.482-5.454-28.762 1.736 8.646 1.321 11.878 8.4 11.878 8.4S14.019 24.31 10.7 37.715c-2.078 8.417-1.354 21.522 5.736 32.89 6.2 9.939 18.042 17.978 34.265 20.804 0 0 3.54 6.546 13.632 6.37 0 0-2.097-5.159-0.133-9.419 0.879-1.901 2.414-3.873 4.014-5.267 4.132-3.603 7.977-6.027 7.977-6.027-8.845 0-17.035 1.957-24.112 8.444 0 0-6.881-0.394-12.379-5.9-5.327-5.277-9.046-12.902-9.522-20.754 3.428 2.459 7.38 1.478 7.38 1.478-6.97-5.111-4.549-15.527-4.433-16.144 0.116-0.615 0.753-2.377 0.965-2.814 10.188-21.102 37.815-11.914 45.84-8.912 8.516 3.182 12.246 1.411 12.844-0.263C93.219 30.946 89.594 27.073 81.812 22.649z" data-fill-palette-color="accent"></path></svg></g></svg></g></svg></g></svg></g></svg></g></svg></g><defs></defs></svg><rect width="84.41655008005837" height="95.48100000000001" fill="none" stroke="none" visibility="hidden"></rect></g></svg></g></svg>