<?xml version="1.0" encoding="UTF-8"?>
<svg version="1.1" viewBox="0 0 128 128" xmlns="http://www.w3.org/2000/svg">
<g transform="matrix(.80469 0 0 .80469 12.755 6.3558)">
<svg width="128" height="144" data-background-color="#ffffff" viewBox="0 0 84 95" xmlns="http://www.w3.org/2000/svg" xmlns:xlink="http://www.w3.org/1999/xlink">
<g transform="translate(-.20828 -.2405)">
<svg width="84.417" height="95.481" viewBox="0 0 84.41655008005837 95.48100000000001">
<svg width="84.417" height="95.481" viewBox="0 0 84.41655008005837 95.48100000000001">
<svg width="84.417" height="95.481" viewBox="0 0 84.41655008005837 95.48100000000001">
<svg width="84.417" height="95.481" viewBox="0 0 84.41655008005837 95.48100000000001">
<svg width="84.417" height="95.481" viewBox="0 0 84.41655008005837 95.48100000000001">
<svg width="84.417" height="95.481" viewBox="0 0 84.41655008005837 95.48100000000001">
<svg class="icon-icon-0" width="84.417" height="95.481" enable-background="new 0 0 100 100" data-fill-palette-color="accent" version="1.1" viewBox="9.681451142481942 3.757766203860583 83.12902574900816 94.02472027124519" xml:space="preserve" xmlns="http://www.w3.org/2000/svg" xmlns:xlink="http://www.w3.org/1999/xlink"><path d="m81.812 22.649s1.262-7.748-8.437-13.717c-6.892-4.241-17.927-7.535-33.624-2.976 0 0-14.482-5.454-28.762 1.736 8.646 1.321 11.878 8.4 11.878 8.4s-8.848 8.218-12.167 21.623c-2.078 8.417-1.354 21.522 5.736 32.89 6.2 9.939 18.042 17.978 34.265 20.804 0 0 3.54 6.546 13.632 6.37 0 0-2.097-5.159-0.133-9.419 0.879-1.901 2.414-3.873 4.014-5.267 4.132-3.603 7.977-6.027 7.977-6.027-8.845 0-17.035 1.957-24.112 8.444 0 0-6.881-0.394-12.379-5.9-5.327-5.277-9.046-12.902-9.522-20.754 3.428 2.459 7.38 1.478 7.38 1.478-6.97-5.111-4.549-15.527-4.433-16.144 0.116-0.615 0.753-2.377 0.965-2.814 10.188-21.102 37.815-11.914 45.84-8.912 8.516 3.182 12.246 1.411 12.844-0.263 0.445-1.255-3.18-5.128-10.962-9.552z" fill="#ffd700" data-fill-palette-color="accent"/></svg>
</svg>
</svg>
</svg>
</svg>
</svg>
</svg>
<rect width="84.417" height="95.481" fill="none" visibility="hidden"/>
</g>
</svg>
</g>
</svg>
